<?xml version="1.0" encoding="UTF-8"?>
<svg id="Layer_2" data-name="Layer 2" xmlns="http://www.w3.org/2000/svg" viewBox="0 0 564.35 731.55">
  <g id="Layer_1-2" data-name="Layer 1">
    <g>
      <path d="m392.27,227.83c.23.72.42,1.45.68,2.15,5.1,13.54,9.45,27.31,13.04,41.32,2.87,11.17,5.17,22.46,6.71,33.88,1.47,10.87,1.94,21.79,1.26,32.74-.27,4.39-.94,8.74-1.88,13.04-.14.65-.36,1.29-.61,2.15-.59-.42-1.11-.69-1.49-1.08-2.26-2.3-4.57-4.55-6.71-6.96-13.68-15.5-24.03-32.93-30.34-52.68-2.62-8.21-4.38-16.6-5.24-25.19-1.27-12.74-.48-25.34,1.96-37.9,1.02-5.26,1.62-10.61,2.28-15.94,1.25-10.1,1.44-20.26,1.29-30.43-.24-16.39-2.27-32.52-7.22-48.21-3.26-10.32-7.83-19.99-14.22-28.76-.28-.38-.52-.78-.81-1.22.92-.37,1.4.24,1.94.57,8.5,5.13,16.12,11.36,23.09,18.4,13.89,14.03,24.16,30.35,30.95,48.89.33.91.67,1.83,1.05,2.86.61.21,1.22.51,1.87.64,19.89,3.94,39.09,10.15,57.95,17.49,32.29,12.57,63.16,28.03,93.01,45.57.76.44,1.49.93,2.22,1.41.16.1.27.28.53.55.16,2.09.42,4.32.49,6.56.39,11.43.44,22.86-.14,34.28-.46,9.07-1.25,18.12-2,27.16-.83,10.03-2.22,19.99-3.76,29.93-2.18,13.99-4.9,27.89-8.17,41.67-7.67,32.29-18.1,63.65-31.51,94.02-24.25,54.95-56.94,104.31-97.95,148.17-29.69,31.76-62.77,59.53-98.74,83.9-11.97,8.11-24.21,15.81-36.7,23.09-.92.54-1.86,1.05-2.87,1.62-.71-.37-1.4-.71-2.07-1.1-38.3-22.28-74.03-48.09-106.68-78.1-41.32-37.98-76.07-81.21-103.77-130.06-18.08-31.88-32.64-65.3-43.84-100.2-7.26-22.62-13.02-45.62-17.32-68.98-2-10.85-3.64-21.76-4.94-32.73-1.42-11.93-2.45-23.89-3.06-35.89-.65-12.79-.7-25.58-.2-38.37.06-1.46.23-2.92.36-4.38.03-.28.13-.56.22-.93.61-.4,1.25-.84,1.92-1.24,32.45-19.13,66.09-35.8,101.43-48.92,14.75-5.47,29.75-10.11,45.12-13.51,2.28-.5,4.56-.99,6.79-1.47,1.54-3.12,1.85-6.33,2.09-9.54.4-5.32-.51-10.51-1.84-15.64-.18-.71-.57-1.41-.15-2.34,1.21.68,2.03,1.62,2.83,2.58,1.97,2.35,3.35,5.04,4.41,7.89,1.26,3.41,1.99,6.95,2.43,10.54.81,6.63.52,13.26-.24,19.87-1.65,14.24-5.45,27.96-10.06,41.48-6.13,17.96-13.74,35.3-22.09,52.32-3.74,7.63-7.76,15.12-11.51,22.74-7.19,14.6-12.45,29.91-16.39,45.68-2.8,11.2-4.73,22.56-5.72,34.05-.84,9.84-.98,19.69-.3,29.56,1.27,18.28,5.26,35.9,12.41,52.79,6.06,14.32,14.13,27.41,23.98,39.42,3.84,4.68,7.6,9.43,11.8,13.81,10.25,10.71,21.66,19.99,34.02,28.15,13.1,8.66,26.97,15.72,41.8,20.91,11.92,4.17,24.12,7.2,36.62,9,8.13,1.17,16.32,1.81,24.53,1.78,24.95-.09,48.82-5.28,71.63-15.4,17.85-7.92,33.82-18.67,48.11-31.94,11.44-10.62,21.45-22.46,30.25-35.32,4.2-6.14,7.57-12.77,10.77-19.47,8.54-17.88,14.83-36.53,18.72-55.97,1.53-7.67,2.77-15.38,3.29-23.19.39-5.84.84-11.7.84-17.55.03-20.77-3.2-41.04-9.94-60.72-6.38-18.63-15.54-35.8-27.06-51.73-10.98-15.19-23.73-28.78-37.77-41.17-.28-.25-.6-.46-.9-.69-.15.07-.31.15-.46.22Z"/>
      <path d="m262.58,240.51c-.33.46-.75.89-.98,1.4-3.9,8.58-6.62,17.52-8.22,26.81-1.27,7.35-1.65,14.76-1.15,22.19.85,12.79,4.55,24.73,11.13,35.74,1.15,1.93,2.35,3.84,3.69,5.64,6.84,9.23,14.62,17.56,23.95,24.35,4.36,3.17,8.99,5.89,14.12,7.64,4.02,1.38,8.11,2.04,12.39,1.59,3.06-.32,5.61-1.61,7.87-3.56,3.79-3.27,5.8-7.51,6.7-12.37,1.04-5.6.31-11.09-.95-16.55-1.21-5.25-3.1-10.28-5.25-15.21-.38-.88-.74-1.76-1.14-2.7.89-.02.98.7,1.25,1.11,6.94,10.54,13.12,21.51,18.61,32.87,6.22,12.86,11.45,26.1,15.19,39.91,2.46,9.07,4.2,18.27,4.95,27.64,1.01,12.51-.47,24.76-4.02,36.78-4.23,14.33-10.84,27.39-20.56,38.8-10.74,12.6-24,21.68-39.33,27.79-9.29,3.71-18.9,6.25-28.78,7.71-4.06.6-8.12,1.21-12.2,1.53-5.07.4-10.14.27-15.21-.28-9.29-1-18.24-3.28-26.86-6.87-14.62-6.09-26.88-15.41-37.16-27.39-4.08-4.75-7.73-9.82-11.02-15.16-.35-.58-.69-1.17-1.01-1.71.48-.71.88-.27,1.27-.07,8.51,4.41,17.26,8.26,26.29,11.45,8.85,3.13,17.87,5.61,27.13,7.23,8.51,1.49,17.09,1.97,25.69,1.26,11.82-.96,22.75-4.53,32.26-11.86,3.26-2.52,6.26-5.32,8.8-8.57,1.26-1.6,2.38-3.35,3.3-5.17,2.96-5.81,4.59-12.01,5.34-18.47,1.35-11.7-.61-22.97-4.45-33.98-4.28-12.28-10.76-23.4-18.39-33.87-4.03-5.53-8.39-10.79-12.96-15.89-12.23-13.66-20.61-29.38-24.48-47.35-3.43-15.95-2.25-31.66,3.04-47.07,4.34-12.6,11.05-23.9,19.25-34.35.3-.38.63-.77,1.02-1.04.17-.12.54.03.82.06l.07-.04Z"/>
      <path d="m194.15,224.21c-.15-3.12-.25-6.24-.45-9.36-.97-14.92-4.85-29.03-11.73-42.31-.4-.77-.78-1.54-1.18-2.32,3.06-1.32,4.81-1.44,12.91-.89.1-.3.32-.63.32-.97.03-2.69.84-5.19,1.74-7.68,2.1-5.8,4.8-11.33,7.67-16.77,8.23-15.66,17.24-30.87,26.94-45.66,10.4-15.87,17.46-33.11,21.4-51.65,2.79-13.16,3.91-26.45,3.4-39.89-.05-1.17-.2-2.33-.28-3.5-.06-.84-.09-1.69-.17-3.2.67,1,1.02,1.43,1.27,1.92,4.47,8.55,7.41,17.62,9.11,27.1,1.06,5.88,1.52,11.83,1.56,17.78.04,5.95-.39,11.9-1.21,17.81-2.64,18.94-8.72,36.81-16.92,54.01-5.31,11.13-11.44,21.78-18.58,31.85-6.74,9.5-12.33,19.7-17.44,30.15-6.61,13.53-12.35,27.42-17.32,41.63-.23.67-.17,1.59-1.09,1.91l.06.06Z"/>
      <path d="m340.67,120.56c.33,1.71.71,3.41.97,5.13,1.36,9.09,1.08,18.11-1.47,26.99-2.99,10.43-8.93,18.77-17.74,25.11-2.77,1.99-5.8,3.23-9.21,3.39-7.69.37-14.43-4.65-15.65-12.09-.07-.45,0-.91,0-1.65,2.19,1.27,4.21,2.16,6.42,2.66,6.02,1.37,11.42.22,16.21-3.7,2.59-2.12,4.74-4.64,6.68-7.35,5.85-8.15,9.53-17.22,11.54-27,.59-2.86.91-5.78,1.37-8.67.15-.94.33-1.87.5-2.81.13,0,.26,0,.39-.01Z"/>
      <path d="m194.09,224.15c.01.07.02.15.03.22,0,.01-.04.03-.07.05.04-.07.07-.13.1-.2,0,0-.06-.07-.06-.07Z"/>
      <path d="m262.5,240.55c0-.13.01-.27.02-.4.01.12.03.24.05.36,0,0-.07.04-.07.04Z"/>
    </g>
  </g>
</svg>